<?xml version="1.0" encoding="utf-8"?>
<!-- Generator: Adobe Illustrator 18.1.1, SVG Export Plug-In . SVG Version: 6.00 Build 0)  -->
<svg version="1.1" id="Layer_1" xmlns="http://www.w3.org/2000/svg" xmlns:xlink="http://www.w3.org/1999/xlink" x="0px" y="0px"
	 viewBox="0 0 187.1 28.8" style="enable-background:new 0 0 187.1 28.8;" xml:space="preserve">
<style type="text/css">
	.st0{fill-rule:evenodd;clip-rule:evenodd;fill:#FFFFFF;}
	.st1{fill-rule:evenodd;clip-rule:evenodd;fill:#3692E0}
</style>
<g>
	<path class="st0" d="M149.5,26.2c-3.1-1.2,0.9-4.1,2.1-5.3c0,1.4,0,3.7-0.3,5.1C150.9,26.2,150,26.2,149.5,26.2L149.5,26.2z
		 M124.1,27.2c0,0,0.1,0,0.1,0c-0.1-0.8-0.3-0.6,0.1-1.3c-0.1-0.7-0.4-1.3-0.6-1.9c-0.1,0-0.1,0-0.1,0
		C122.8,25.6,122.7,26,124.1,27.2L124.1,27.2z M124.2,5.8c0.1,0.1,0.5-0.7,0.5-0.7c0.8-0.9,0.7-1.1,0.7-2.2c0,0-0.1-0.1-0.1-0.1
		c-0.1,0.2-0.3,0.4-0.4,0.7C124.2,4.3,123.5,4.2,124.2,5.8L124.2,5.8z M134.5,19.1c0.2,0.2,1-3.6,0.5-3.6c-0.2,0.2-0.2,0.6-0.4,0.9
		c-2.2,0.9-0.2-3.8-2-3.8C132.5,14.9,133.6,17,134.5,19.1L134.5,19.1z M138.9,19.7c0.2,0.2,1.8-6.3,1.8-7.6
		c-0.9-0.8-0.9-0.9-1.3-1.7c-0.1,0-0.1,0-0.2,0C138.8,13.5,138.8,16.5,138.9,19.7L138.9,19.7z M131.3,23.2c0.4-0.1,1.3-1.3,1.3-1.8
		c-0.6-1.1-1.4-1.9-1.7-3.1c0,0-0.1,0-0.1,0c-0.2,0.6-0.5,1.4-0.5,2.1C130.6,21.3,131.1,22.2,131.3,23.2L131.3,23.2z M136,23.3
		C136,23.3,136,23.3,136,23.3c0.3-0.5,0.4-2,0.3-2.5c-0.1,0-0.1,0-0.1,0c-0.2,0.3-0.5,0.5-0.7,0.8C135.6,22.2,135.7,22.8,136,23.3
		L136,23.3z M125.3,23.8C125.3,23.8,125.3,23.8,125.3,23.8c1.1-0.7,0.4-1.8-0.3-2.5C124.6,21.8,125.2,23.2,125.3,23.8L125.3,23.8z
		 M126.4,26.6c0.3,0.1,0.2-0.5,0.1-0.6c-0.1,0-0.1,0-0.2,0C126.3,26.1,126.1,26.4,126.4,26.6L126.4,26.6z M132.8,26.6
		c0.8,0,1.6-0.1,2.4,0c0-0.1,0.1-0.1,0.1-0.1c-0.4-0.9-0.9-1.8-1.4-2.6C133.5,23.7,130.6,26,132.8,26.6L132.8,26.6z M130.2,27.8
		c0.2,0,0.2,0,0.3,0c0-1.3-1.8-2.1-0.6-3.1c0.1-0.5-0.7-1.9-0.9-2c-1.1,0.8-1,2.4-0.6,3.7c0.2,0.2,1.9,0.5,0.9,1.1c0,0,0,0.1,0,0.1
		C129.4,27.8,129.9,27.8,130.2,27.8L130.2,27.8z M173.4,28.7c0.5,0,0.9,0.1,1.1-0.3c-0.4-1-1.4-1-1.1-2.2c1.6-2.6,3.5-4.7,4.4-7.6
		c0.1,0,0.1,0,0.2,0c1,2,2.5,3.9,3.3,6c0.5,0.9,1.4,2,1.6,3.1c0.5,1,3.3-0.4,4.1-0.7c0-0.8-1.8-0.5-2.1-0.5c-1.5-0.4-2.5-4.6-2.9-6
		c-1.1-2.6-2.3-5.1-2.3-7.9c0.9,0,2.1,1.2,2.6,2c1.3,0.1,1.4-0.8,0.6-1.6c-3-1.9-3.3-2.2-3.4-5.6c-0.4-1.8-1.4-2.5,0.1-3.6
		c1.6-2.1,0.1-3.8-0.9-3.8c-1,0-1.4,0.6-1.4,2c0.1,1.1,0.1,1.6-0.4,2.6c-2,3.4-2.6,7.1-3.9,10.8c-0.2,1.1,0.5,1.4,1.5,0.7
		c0.2-1.1,0.2-2.4,0.8-3.4c0,0,0,0.1,0.1,0.1c-0.2,2.3-0.3,4.8-0.8,7.1c-0.9,2-1.9,3.8-3,5.8C170.7,26.4,172.9,28.4,173.4,28.7
		L173.4,28.7z M164.9,28.7c0,0.1,2.6,0.1,2.9-0.1c-0.1-0.5-1.4-1-1.6-1.1c-1-1.3-0.2-5.4,0.5-6.4c0.9-0.8,0.9-0.9,1-2.1
		c0-1-1.2-7.7-1-7.9c0.6,0.2,1.2,0.8,1.6,1.3c0.4,0.6,0.5,2.2,1.4,0.9c0-1.1-2.6-3-2.6-4.1c0.2-0.4,0.4-0.9,0.6-1.4
		c0-1.3-2-3.1-0.9-4c0.9-0.2,1-0.9,1-1.7c-0.2-1.3-0.7-1.9-1.3-1.9c-0.7,0-1.4,0.8-1.7,2c-0.1,1.2-0.6,2.2-1.1,3.4
		c-0.5,2.6-1.7,5-2.1,7.7c-0.2,0.3-0.6,0.7-0.6,1.1c1.1,0.9,2.2-3.2,2.5-4c0.1,0,0.1,0,0.2,0c-0.1,0.5-0.1,0.9-0.1,1.4
		c-0.9,2.4,0.1,4.5,1.2,6.7c0.6,1.8-3.5,5.2-4.9,6c-0.2,0.4,1.4,3.6,2,3c-0.1-0.9-0.2-1.7-0.2-2.5c0.5-0.6,1.8-1.8,2.6-1.8
		c0,1.4,0.2,3,0,4.5c-0.1,0.4-0.4,0.9-0.1,1.3C164.4,28.7,164.6,28.7,164.9,28.7L164.9,28.7z M0,28.8h125.1c0,0,0-0.1,0.1-0.1
		c2,0.1,4.2-0.1,6.2-0.1c0.2,0.1,0.4,0.2,0.6,0.2c1.2,0,3.2-1.3,3.8-1.7c0,0,0.1,0.1,0.1,0.1c0,0.5,0,0.9,0,1.4
		c0.2,0.1,1.6,0.3,2.7,0.3c0.7,0,1.3-0.1,1.6-0.2c0.1-0.8-0.5-0.4-0.9-0.7c0-0.1,0-0.1,0-0.1c0.3-0.2,0.7-0.4,1-0.7
		c0-1.2-2.1,0.4-2.1-1c0.9-3.2,3.2-5.6,4.3-8.7c0,0,0.1,0,0.1,0c0.9,2.4,2.5,4.6,3.5,7c-0.3,0.5-0.9,0.8-1.4,1.1
		c-0.6,0.8,2,3.3,2.7,3.3s0.4-0.1,0.4-0.3c-0.2-0.4-0.4-0.3-0.8-0.5c-0.2-0.5-0.4-1.4-0.1-1.8c0.8,0.2,0.4,1.7,1.1,2.1
		c0.8-0.3,2.5-1.3,3.3-1.3c0,0.5-0.1,1.1,0.1,1.7c0.4,0,1.9,0.1,3,0.1c0.6,0,1.1-0.1,1.3-0.2c0-0.4-0.1-0.4-0.4-0.5
		c-1-0.1-1.2-0.5-1.9-1.1c-0.1-1.8,0.2-4.2,0.8-5.8c0.1-2.1,0.2-4.3,0.2-6.4c1.6,0.4-0.2,1.9,2.4-0.4c0.8,0.2,1.3-0.2,1.4-1.1
		c0.6-0.5,1.4-1,1.9-1.6c-0.5-0.7-2.7-3.6-3-3.6c-0.7,0.5-1.4,1.1-2.2,1.6c-1.2-0.3-0.8-5.6-0.6-5.8c0.3,0,0.7-0.3,0.9-0.5
		c1.3-2-0.1-3.5-1.3-3.5c-0.8,0-1.5,0.7-1.5,2c0.1,0.8,0.4,1.6,0,2.3c-2.9,2.2-3.3,6.5-3.5,9.9c-0.9,1.3,0.6,2,1.1,0.5
		c0.1-1.4,0.5-2.5,1-3.8c0,0,0.1,0,0.1,0c0.2,1.2-0.5,2.3-0.5,3.5c0.9,3.4-0.9,5.7-3,8c-1.4-2.9-3.1-6.8-3.1-10
		c1.7,0,2.2,2.8,3.7,1.8c0.1-1.3-1.7-1.9-2.6-2.5c-1.8-1.4-0.8-1.7-0.8-3.4c-0.4-0.9-1.9-3.3-1-4.2c1.7-0.4,1.9-4-0.4-4
		c-0.2,0-0.4,0-0.6,0.1c-1.8,1.1-1.3,5.2-2.7,7.4c-0.1,0-0.1,0-0.2,0c-0.4-0.5-1.3-3.4-0.8-3.7c1.4-0.3,1.4-1.1,1.4-2.5
		C140.3,0.4,139.7,0,139,0c-0.7,0-1.4,0.4-1.7,1.4c0.1,3.1,0.2,2.1-2.2,4.2c-0.9,1.6-1.2,3.5-1.9,5.1c-0.9-0.4-0.7-2.9-0.7-3.4
		c-0.4-1.1-0.9-2.1-0.5-3.1c1.6-0.7,1.9-3.5,0.2-4.1c-0.2,0-0.3-0.1-0.5-0.1c-2.2,0-1.1,2.9-1.7,4.6c-0.7,0.9-1,1.8-1.5,2.8
		c-0.6-0.2-1.5-2.5-1.5-3.2c2.5-0.8,1.6-4.1,0-4.1c-0.4,0-0.9,0.2-1.4,0.8c-0.1,0-0.1,0-0.2,0c-0.4-0.5-0.7-0.6-1.3-0.8H0V28.8
		L0,28.8z"/>
	<path class="st1" d="M41.1,25.9c-1.6-0.6,0.6-1.4,1.2-1.7c0.6-0.5,1.2-1.2,1.3-2L44.8,6c-0.1-0.6-0.2-1-0.5-1.4
		c-0.5-0.4-3.5-1.1-1.8-2c5.5,0,11,0,16.5,0c1.3,0.1,0.7,2.2,0.5,3.2c-0.1,0.7-0.1,1.5-0.2,2.3c-1.4,1.3-1.2-1.4-1.4-2.1
		c-1.2-2-5.9-1.9-7.7-1.2l-0.5,7.6c1.1,0.5,4.2,0.3,5.3-1.3c0.3-0.7,0.5-1.6,1.4-1.1c0.1,0.6,0.2,8.5-1.3,7.5
		c-0.3-0.6-0.4-1.3-0.7-1.9c-1-1.3-4.4-1.9-5.2-0.4l-0.6,7.3c0.4,3.3,6.2,1.1,8,0c0.8-0.7,2.3-2.6,3-2.7c1.2,0.8-1,4.5-1.9,5.2
		c-0.3,0.2-1.8,1-1.8,1C51,25.9,45.9,26,41.1,25.9L41.1,25.9z"/>
	<path class="st1" d="M90.6,26c-4.3,0-8.7-0.1-13.1-0.1c-1.6-0.5,0.8-1.5,1.2-1.7c0.5-0.4,0.7-0.6,1-1.3L81.2,6
		c-0.3-2.1-1.3-1.4-2.6-2.3c-0.3-0.5-0.1-0.8,0.4-1.1c5.6,0,11.1,0,16.7,0c1.1,0.5,0.2,5.6-0.3,5.7c-1.1,0-0.7-0.8-0.8-1.7
		c-0.4-1.9-1.8-2-3.5-2.1c-0.8,0-4.1-0.4-4.6,0.7c-0.2,2.4-0.4,4.7-0.5,7.1c1.3,1,4.4,0.1,5.5-1.1c0.2-0.5,1.1-2.4,1.6-0.9
		c-0.1,2.1-0.3,4.3-0.5,6.5c-0.7,2.1-1.5-1.1-1.9-1.6c-1.1-0.9-4.5-1.6-5-0.1c-0.2,2.3-0.8,5.2-0.6,7.6c0.5,2.5,5.4,1.1,7,0.3
		c1.5-1,2.5-2,3.6-3.3C97.5,19.7,94.6,27,90.6,26L90.6,26z"/>
	<path class="st1" d="M106.5,26.2c-5.6-0.7-9.1-4.1-9.4-9.8c0-8.2,4.9-13.7,13.1-14c2.4,0.2,4.2,0.7,6.4,1.6
		c0.8,0.2,0.8,0.2,0.8,0.2c0.5,0,1.1-1.6,1.8-0.9c0.1,2.2,0.1,4.5,0.2,6.7c-0.3,0.8-0.7,0.5-1.1,0c-1-2.4-2.7-4.6-4.9-5.6
		c-10-3-13.4,10.6-8.4,17c0.9,0.9,1.6,1.4,2.9,1.9c4.2,0.8,6.9-1.2,10-3.9c0.9-0.5,1.1,0.1,0.7,0.9
		C115.5,24.5,111.5,26.3,106.5,26.2L106.5,26.2z"/>
	<path class="st1" d="M68.1,26.2c-1.4-0.2-5.7-0.9-6-1.8c-0.3-1.8-0.8-3.9-0.8-5.6c0.3-0.6,0.6-0.6,1.2-0.3c1.1,2.7,2.2,5.1,5.2,6
		c1.6,0.2,2.8,0.1,4.2-0.6c6-5.4-4.1-7.3-7.1-9.2c-3.9-3.3-2.7-10.8,2-11.9c0.6-0.3,1.2-0.3,1.8-0.4c0.9-0.2,6.1,1.1,7,1.2
		c2-0.9,1.6,0.2,1.5,2.1c0,1,0.3,2.8,0,3.8c-1.2,1.5-1.8-1.8-2-2.3c-1.9-2.9-5.7-4.8-8.5-2c-2.5,4.5,2.7,5.4,6,6.8
		c3.7,1.7,4.8,3.6,4.3,7.8C76,24.1,72.3,26.3,68.1,26.2L68.1,26.2z"/>
	<path class="st1" d="M18.9,26c-1.3-0.5,1.6-1.7,1.8-1.8c1.1-1.4,0.1-5.6-1.8-6c-2.2-0.1-4.5-0.1-6.7,0.1c-1.4,0.8-3.4,4.4-2,5.7
		c0.5,0.2,3.6,1,2.5,1.9c-6.7,0-8.7,0.4-8-0.8c1.2-0.8,1.8-1.3,2.7-2.4c4-6.4,7.4-13.2,11.2-19.7c0.2-0.3,0.3-0.4,0.7-0.4
		c0.2,0.2,0.3,0.4,0.4,0.6C22,9.8,24.4,16.4,26.7,23c0.6,1.3,1,1.6,2.4,1.7c1.2-0.4,1.3-1.4,1.5-2.5C31.1,17,31.7,11.8,32,6.7
		c0-2.5-0.5-2.4-2.6-3c-0.5-0.2-0.3-1,0.1-1.1c3.3,0,6.6,0,9.9,0c1.6,0.6-1.4,1.7-2,2.4c-0.1,0.2-0.2,0.4-0.3,0.7
		c-0.5,5.6-1,11.1-1.5,16.8c0,2.8,2.1,1.4,2.8,2.5c0.1,0.9-1,1.1-2.4,1.1L18.9,26L18.9,26z"/>
	<path class="st0" d="M14.3,16.3c-0.4,0-1,0-1.3-0.2c0-0.8,3.3-6.3,3.4-6.4c0.8-0.8,2.8,5.7,2.9,6.3C19.1,16.5,15,16.3,14.3,16.3
		L14.3,16.3z"/>
	<path class="st1" d="M118.1,26.2c0.2,0.6,0.8,1,1.5,1c0.9,0,1.6-0.7,1.6-1.6c0-0.9-0.7-1.6-1.6-1.6s-1.6,0.7-1.6,1.6
		C118,25.8,118,26,118.1,26.2L118.1,26.2z"/>
	<path class="st0" d="M118.2,26.1c0.2,0.5,0.7,0.9,1.3,0.9c0.8,0,1.4-0.6,1.4-1.4c0-0.8-0.6-1.4-1.4-1.4c-0.8,0-1.4,0.6-1.4,1.4
		C118.1,25.8,118.2,26,118.2,26.1L118.2,26.1z"/>
	<path class="st1" d="M119.9,26.6c-0.1,0-0.2,0.1-0.4,0.1c-0.3,0-0.5-0.1-0.7-0.3c-0.2-0.2-0.2-0.4-0.2-0.7c0-0.2,0-0.4,0.1-0.5
		c0.1-0.2,0.2-0.3,0.3-0.4c0.1-0.1,0.3-0.1,0.5-0.1c0.1,0,0.2,0,0.3,0.1c0.2,0.1,0.3,0.2,0.4,0.4c0,0.1,0,0.1-0.1,0.1
		c-0.1,0.1-0.2,0-0.3-0.1c-0.2-0.2-0.2-0.1-0.4-0.2c-0.1,0-0.3,0.1-0.4,0.2c-0.1,0.1-0.1,0.3-0.1,0.5c0,0.1,0,0.2,0,0.2
		c0,0.1,0.1,0.1,0.1,0.2c0,0.1,0.2,0.1,0.2,0.2c0.1,0,0.2,0,0.2,0c0.1,0,0.2,0,0.3-0.1c0.2-0.1,0.1-0.1,0.2-0.2c0,0,0.1-0.1,0.1-0.1
		c0.1,0,0.1,0,0.1,0.1C120.4,26.2,120.2,26.5,119.9,26.6L119.9,26.6z"/>
</g>
</svg>
